<svg id="audio-book" xmlns="http://www.w3.org/2000/svg" width="31.546" height="41.486" viewBox="0 0 31.546 41.486">
  <g id="Group_22" data-name="Group 22">
    <g id="Group_21" data-name="Group 21" transform="translate(0)">
      <path id="Path_16" data-name="Path 16" d="M169.419,92.034a9.164,9.164,0,1,0,9.164-9.164A9.174,9.174,0,0,0,169.419,92.034Zm16.706,0a7.543,7.543,0,1,1-7.543-7.543A7.551,7.551,0,0,1,186.125,92.034Z" transform="translate(-160.66 -76.154)" fill="#f8f4e4"/>
      <path id="Path_17" data-name="Path 17" d="M237.256,140.083a1.317,1.317,0,0,0-1.976,1.141v6.45a1.317,1.317,0,0,0,1.976,1.141l5.585-3.225a1.317,1.317,0,0,0,0-2.282Zm-.355,7.065v-5.4l4.675,2.7Z" transform="translate(-221.184 -128.569)" fill="#f8f4e4"/>
      <path id="Path_18" data-name="Path 18" d="M92.066,19.075a.81.81,0,0,0-.81.81V30.353H66.926V1.621H91.256V12.589a.81.81,0,1,0,1.621,0V.81a.81.81,0,0,0-.81-.81H65.189a3.862,3.862,0,0,0-3.858,3.858V34.21h0a3.863,3.863,0,0,0,3.858,3.858H65.3v2.613a.817.817,0,0,0,1.341.612l2.084-1.807,2.084,1.807a.818.818,0,0,0,1.341-.612V38.068H92.066a.81.81,0,0,0,.81-.81V19.886a.81.81,0,0,0-.81-.81ZM62.952,3.858a2.24,2.24,0,0,1,2.237-2.237H65.3V30.353a3.985,3.985,0,0,0-2.353.713ZM69.261,37.8a.818.818,0,0,0-1.062,0l-1.273,1.1V35.734h3.608v3.172Zm22-1.354h-19.1V34.923a.82.82,0,0,0-.81-.81H66.115a.819.819,0,0,0-.811.811v1.524h-.116a2.237,2.237,0,1,1,0-4.473H91.256Z" transform="translate(-61.331)" fill="#f8f4e4"/>
      <path id="Path_19" data-name="Path 19" d="M432.163,191a.81.81,0,1,0-.313.993A.817.817,0,0,0,432.163,191Z" transform="translate(-400.679 -175.061)" fill="#f8f4e4"/>
    </g>
  </g>
</svg>
