<svg id="quran" xmlns="http://www.w3.org/2000/svg" width="42.001" height="41.996" viewBox="0 0 42.001 41.996">
  <path id="Path_8" data-name="Path 8" d="M62.208,442.712l9.948-2.835-11.523-3.3v4.95a1.23,1.23,0,0,0,1.575,1.181Z" transform="translate(-55.629 -400.761)" fill="#f8f4e4"/>
  <path id="Path_9" data-name="Path 9" d="M321.2,442.623a1.212,1.212,0,0,0,.492-.984v-4.95l-11.523,3.3,9.948,2.835A1.211,1.211,0,0,0,321.2,442.623Z" transform="translate(-284.69 -400.868)" fill="#f8f4e4"/>
  <path id="Path_10" data-name="Path 10" d="M283.3,1.261A1.231,1.231,0,0,0,281.685.093L271,3.654V25.171a8.036,8.036,0,0,1,3.05-1.862l9.255-3.084V1.261Z" transform="translate(-248.769 -0.029)" fill="#f8f4e4"/>
  <path id="Path_11" data-name="Path 11" d="M103.3,25.172V3.654L92.619.093A1.231,1.231,0,0,0,91,1.261V20.225l9.255,3.085a8.03,8.03,0,0,1,3.05,1.861Z" transform="translate(-83.535 -0.029)" fill="#f8f4e4"/>
  <path id="Path_12" data-name="Path 12" d="M40.327,60.07,37,61.3V81.078a1.229,1.229,0,0,1-.841,1.167L21.39,87.167a1.222,1.222,0,0,1-.779,0L5.845,82.245A1.229,1.229,0,0,1,5,81.078V61.3L1.673,60.07a1.227,1.227,0,0,0-1.132.148A1.208,1.208,0,0,0,0,61.226V86a1.241,1.241,0,0,0,.886,1.181c.59.168.231.064.072.018.465.133,3.919,1.1,20.041,5.715h0c2.049-.589,1.552-.421,20.114-5.734A1.241,1.241,0,0,0,42,86V61.226a1.208,1.208,0,0,0-.541-1.009A1.228,1.228,0,0,0,40.327,60.07ZM.926,87.191Z" transform="translate(0 -55.074)" fill="#f8f4e4"/>
  <path id="Path_13" data-name="Path 13" d="M255.967,461.324Z" transform="translate(-234.968 -423.483)" fill="#f8f4e4"/>
  <path id="Path_14" data-name="Path 14" d="M91,280.166l12,4a5.582,5.582,0,0,0-3.525-3.5L91,277.838Z" transform="translate(-83.535 -255.048)" fill="#f8f4e4"/>
  <path id="Path_15" data-name="Path 15" d="M274.7,284.165l12-4v-2.328l-8.476,2.826A5.586,5.586,0,0,0,274.7,284.165Z" transform="translate(-252.169 -255.047)" fill="#f8f4e4"/>
</svg>
